# xmcd
#
# Track frame offsets: 
#        150
#        7412
#        28517
#        73954
#        118545
#        154643
#        180404
#        188687
#        207067
#        221845
#        241571
#        255274
#        299963
#        307266
#        327868
#        342354
#        349730
#
# Disc length: 4755 seconds
#
# Revision: 0
# Processed by: cddbd v1.5.2PL0 Copyright (c) Steve Scherf et al.
# Submitted via: ExactAudioCopy v1.0b3
#
DISCID=02129111
DTITLE=Flemish Polyphony - Flemish Polyphony (Ricercar, 8cd, 2011) [di
DTITLE=sc 3]
DYEAR=2011
DGENRE=Ballad
TTITLE0=Dufay - Se la face ay pale (instrumental) [Continens Paradisi]
TTITLE1=Dufay - Missa Se la face ay pale - I. Kyrie [Diabolus in Music
TTITLE1=a]
TTITLE2=Dufay - Missa Se la face ay pale - II. Gloria
TTITLE3=Dufay - Missa Se la face ay pale - III. Credo
TTITLE4=Dufay - Missa Se la face ay pale - IV. Sanctus
TTITLE5=Dufay - Missa Se la face ay pale - V. Agnus Dei
TTITLE6=Anonymous - Redeuntes In Idem (organ) [Capilla Flamenca]
TTITLE7=Gregorian - Introitus - Cibavit eos [Psallentes]
TTITLE8=Johannes Brassart - Kyrie [Capilla Flamenca]
TTITLE9=Johannes Brassart - Gloria [Capilla Flamenca]
TTITLE10=Gregorian - Alleluia - caro mea [Capilla Flamenca and Psallente
TTITLE10=s]
TTITLE11=Johannes Brassart - Credo [Capilla Flamenca]
TTITLE12=Gregorian - Offertorium - Sacerdotes incensum [Capilla Flamen
TTITLE12=ca and Psallentes]
TTITLE13=Johannes Brassart - Sanctus [Capilla Flamenca]
TTITLE14=Johannes Brassart - Agnus Dei [Capilla Flamenca]
TTITLE15=Gregorian - Communio - Quoties cumque [Capilla Flamenca]
TTITLE16=Anonymous - Redeuntes In Idem mi de ealem mensura (organ) [Ca
TTITLE16=pilla Flamenca]
EXTD=
EXTT0=
EXTT1=
EXTT2=
EXTT3=
EXTT4=
EXTT5=
EXTT6=
EXTT7=
EXTT8=
EXTT9=
EXTT10=
EXTT11=
EXTT12=
EXTT13=
EXTT14=
EXTT15=
EXTT16=
PLAYORDER=
